<svg xmlns="http://www.w3.org/2000/svg" xmlns:xlink="http://www.w3.org/1999/xlink" xmlns:lucid="lucid" width="1760" height="1360"><g transform="translate(0 0)" lucid:page-tab-id="0_0"><path d="M0 0h1760v1360H0z" fill="#fff"/><path d="M580 100c0 11.05-8.95 20-20 20s-20-8.95-20-20 8.95-20 20-20 20 8.95 20 20z" stroke="#666"/><path d="M560.5 177.32h-1v-10.88h1m0-18.67h-1V121h1" fill="#333"/><path d="M559.98 120.5l.52-.02v.53h-1v-.56M560 192.1l-4.64-14.28h9.28z" fill="#333"/><path d="M560 193.7l-5.32-16.38h10.64m-9.27 1l3.95 12.15 3.95-12.15" fill="#333"/><use xlink:href="#a" transform="matrix(1,0,0,1,487.9259259259259,147.77090760268268) translate(0.0049999999999954525 12.444444444444446)"/><use xlink:href="#b" transform="matrix(1,0,0,1,487.9259259259259,147.77090760268268) translate(63.005 12.444444444444446)"/><use xlink:href="#c" transform="matrix(1,0,0,1,487.9259259259259,147.77090760268268) translate(126.8691975308642 12.444444444444446)"/><path d="M531.17 483.12h-1V373.25h1m0-21.6h-1V275.2h1" fill="#333"/><path d="M531.17 275.22h-1v-.5h1M530.67 497.88l-4.64-14.26h9.27z" fill="#333"/><path d="M530.67 499.5l-5.33-16.38H536m-9.28 1l3.95 12.14 3.94-12.14" fill="#333"/><use xlink:href="#d" transform="matrix(1,0,0,1,479.7416666666666,351.65082235260815) translate(0.005000000000002558 14.4)"/><use xlink:href="#e" transform="matrix(1,0,0,1,479.7416666666666,351.65082235260815) translate(37.955000000000005 14.4)"/><path d="M633.76 271.84V440h229.86" stroke="#333" fill="none"/><path d="M634.26 271.86h-1v-.13l1-.77" fill="#333"/><path d="M878.38 440l-14.26 4.64v-9.28z" stroke="#333" fill="#333"/><use xlink:href="#f" transform="matrix(1,0,0,1,671.6233076917529,417.3333333333333) translate(0 12.444444444444446)"/><use xlink:href="#g" transform="matrix(1,0,0,1,671.6233076917529,417.3333333333333) translate(56.12962962962963 12.444444444444446)"/><path d="M896 400c-8.84 0-16 7.16-16 16v48c0 8.84 7.16 16 16 16h128c8.84 0 16-7.16 16-16v-48c0-8.84-7.16-16-16-16z" stroke="#000" stroke-opacity="0" fill="#75b2ff"/><use xlink:href="#h" transform="matrix(1,0,0,1,888,408) translate(8.395061728395056 14.222222222222223)"/><use xlink:href="#i" transform="matrix(1,0,0,1,888,408) translate(55.703703703703695 14.222222222222223)"/><use xlink:href="#j" transform="matrix(1,0,0,1,888,408) translate(93.18518518518519 14.222222222222223)"/><use xlink:href="#k" transform="matrix(1,0,0,1,888,408) translate(0.5185185185185048 35.55555555555556)"/><use xlink:href="#l" transform="matrix(1,0,0,1,888,408) translate(18.2469135802469 35.55555555555556)"/><use xlink:href="#m" transform="matrix(1,0,0,1,888,408) translate(79.38271604938271 35.55555555555556)"/><use xlink:href="#n" transform="matrix(1,0,0,1,888,408) translate(100.07407407407408 35.55555555555556)"/><use xlink:href="#o" transform="matrix(1,0,0,1,888,408) translate(8.8395061728395 56.88888888888889)"/><use xlink:href="#p" transform="matrix(1,0,0,1,888,408) translate(28.592592592592588 56.88888888888889)"/><use xlink:href="#q" transform="matrix(1,0,0,1,888,408) translate(92.74074074074073 56.88888888888889)"/><path d="M980 920c0 11.05-8.95 20-20 20s-20-8.95-20-20 8.95-20 20-20 20 8.95 20 20z" stroke="#666" fill="#fff"/><path d="M972 920c0 6.63-5.37 12-12 12s-12-5.37-12-12 5.37-12 12-12 12 5.37 12 12z" stroke="#666"/><path d="M406.57 76.92c0-4.42 3.58-8 8-8h929.8c4.4 0 8 3.58 8 8v25.15c0 4.42-3.6 8-8 8h-929.8c-4.42 0-8-3.58-8-8z" stroke="#000" stroke-opacity="0" stroke-width="2" fill="#fff" fill-opacity="0"/><use xlink:href="#r" transform="matrix(1,0,0,1,410.5732763926716,72.91914611427114) translate(244.32234567901236 25.782777777777778)"/><use xlink:href="#s" transform="matrix(1,0,0,1,410.5732763926716,72.91914611427114) translate(353.2902469135803 25.782777777777778)"/><use xlink:href="#t" transform="matrix(1,0,0,1,410.5732763926716,72.91914611427114) translate(466.7741975308642 25.782777777777778)"/><use xlink:href="#u" transform="matrix(1,0,0,1,410.5732763926716,72.91914611427114) translate(530.1445679012346 25.782777777777778)"/><use xlink:href="#v" transform="matrix(1,0,0,1,410.5732763926716,72.91914611427114) translate(598.4680246913581 25.782777777777778)"/><path d="M707.53 108.73h356.4M707.56 108.73h-1.03M1063.9 108.73h1.02" stroke="#a9afb8" stroke-width="2" fill="none"/><path d="M406.57 118.07c0-4.4 3.58-8 8-8h930.86c4.42 0 8 3.6 8 8v2.85c0 4.42-3.58 8-8 8H414.57c-4.42 0-8-3.58-8-8z" stroke="#000" stroke-opacity="0" stroke-width="2" fill="#fff" fill-opacity="0"/><use xlink:href="#w" transform="matrix(1,0,0,1,410.573276392672,114.0743700711699) translate(338.41504115226337 14.917037037037037)"/><use xlink:href="#x" transform="matrix(1,0,0,1,410.573276392672,114.0743700711699) translate(370.66473251028805 14.917037037037037)"/><use xlink:href="#y" transform="matrix(1,0,0,1,410.573276392672,114.0743700711699) translate(460.61545267489714 14.917037037037037)"/><use xlink:href="#z" transform="matrix(1,0,0,1,410.573276392672,114.0743700711699) translate(473.06493827160494 14.917037037037037)"/><use xlink:href="#A" transform="matrix(1,0,0,1,410.573276392672,114.0743700711699) translate(547.7193621399177 14.917037037037037)"/><use xlink:href="#B" transform="matrix(1,0,0,1,410.573276392672,114.0743700711699) translate(573.2131893004115 14.917037037037037)"/><path d="M960.5 633.12h-1V557.2h1m0-21.6h-1v-55.1h1M960.5 480.5h-1v-.5h1M960 647.88l-4.64-14.26h9.28z" fill="#333"/><path d="M960 649.5l-5.32-16.38h10.64m-9.27 1l3.95 12.14 3.95-12.14" fill="#333"/><use xlink:href="#C" transform="matrix(1,0,0,1,938.025,535.5875000000001) translate(0.004999999999999005 14.4)"/><path d="M896 650c-8.84 0-16 7.16-16 16v48c0 8.84 7.16 16 16 16h128c8.84 0 16-7.16 16-16v-48c0-8.84-7.16-16-16-16z" stroke="#333" fill="#75b2ff"/><use xlink:href="#D" transform="matrix(1,0,0,1,888,658) translate(2.0749999999999886 35.6)"/><use xlink:href="#E" transform="matrix(1,0,0,1,888,658) translate(81.975 35.6)"/><path d="M960.5 883.12h-1v-69.65h1m0-21.6h-1V731h1M960.5 731h-1v-.5h1M960 897.88l-4.64-14.26h9.28z" fill="#333"/><path d="M960 899.5l-5.32-16.38h10.64m-9.27 1l3.95 12.14 3.95-12.14" fill="#333"/><use xlink:href="#F" transform="matrix(1,0,0,1,876.775,791.8666666666667) translate(0.0049999999999954525 14.4)"/><use xlink:href="#G" transform="matrix(1,0,0,1,876.775,791.8666666666667) translate(72.905 14.4)"/><use xlink:href="#H" transform="matrix(1,0,0,1,876.775,791.8666666666667) translate(146.805 14.4)"/><path d="M1121.3 440.5h-80.8v-1h80.8m121.82 1h-64.92v-1h64.92M1040.5 440.5h-.5v-1h.5M1257.88 440l-14.26 4.64v-9.28z" fill="#333"/><path d="M1259.5 440l-16.38 5.32v-10.64m1 9.27l12.14-3.95-12.14-3.95" fill="#333"/><g><use xlink:href="#I" transform="matrix(1,0,0,1,1121.3,429.2) translate(0.004999999999999005 14.4)"/></g><path d="M1276 400c-8.84 0-16 7.16-16 16v48c0 8.84 7.16 16 16 16h128c8.84 0 16-7.16 16-16v-48c0-8.84-7.16-16-16-16z" stroke="#333" fill="#75b2ff"/><g><use xlink:href="#J" transform="matrix(1,0,0,1,1268,408) translate(36.025 24.799999999999997)"/><use xlink:href="#K" transform="matrix(1,0,0,1,1268,408) translate(0.5999999999999943 46.4)"/><use xlink:href="#L" transform="matrix(1,0,0,1,1268,408) translate(84.4 46.4)"/></g><path d="M1340 481v197c0 6.63-5.37 12-12 12h-271.12" stroke="#333" fill="none"/><path d="M1340.5 481h-1v-.5h1" fill="#333"/><path d="M1042.12 690l14.26-4.64v9.28z" stroke="#333" fill="#333"/><path d="M496 194.2c-8.84 0-16 7.17-16 16v48c0 8.84 7.16 16 16 16h128c8.84 0 16-7.16 16-16v-48c0-8.83-7.16-16-16-16z" stroke="#333" fill="#75b2ff"/><g><use xlink:href="#M" transform="matrix(1,0,0,1,488,202.20817001812065) translate(31.1 14.4)"/><use xlink:href="#N" transform="matrix(1,0,0,1,488,202.20817001812065) translate(91.95 14.4)"/><use xlink:href="#O" transform="matrix(1,0,0,1,488,202.20817001812065) translate(4.074999999999989 36)"/><use xlink:href="#P" transform="matrix(1,0,0,1,488,202.20817001812065) translate(69.02499999999999 36)"/><use xlink:href="#Q" transform="matrix(1,0,0,1,488,202.20817001812065) translate(8.624999999999993 57.6)"/><use xlink:href="#R" transform="matrix(1,0,0,1,488,202.20817001812065) translate(29.574999999999992 57.6)"/><use xlink:href="#S" transform="matrix(1,0,0,1,488,202.20817001812065) translate(67.525 57.6)"/></g><path d="M960.5 399.5h-1V227.97h1m-303.88-19.33v-1h287.4v1M960.5 400h-1v-.5h1M656.12 212.78l-14.27-4.64 14.27-4.63z" fill="#333"/><path d="M656.62 213.47l-16.4-5.33 16.4-5.32m-13.15 5.32l12.15 3.95v-7.9" fill="#333"/><g><use xlink:href="#T" transform="matrix(1,0,0,1,944.025,206.3716915286899) translate(0.005000000000000782 14.4)"/></g><path d="M463.12 211.17h-151.1l-3 .4-2.76 1.13-2.4 1.84-1.82 2.4-1.14 2.74-.4 3.02v665.27l.4 3 1.14 2.77 1.83 2.4 2.4 1.82 2.75 1.14 3 .4H522.8v1h-210.8l-3.22-.42-3-1.24-2.6-2-2-2.6-1.24-3-.42-3.2v-665.4l.42-3.22 1.24-3 2-2.6 2.6-2 3-1.23 3.2-.43h151.16M879 690.5h-27.47l-3 .4-2.77 1.14-2.4 1.83-1.82 2.4-1.14 2.75-.4 3v186l-.42 3.22-1.24 3-2 2.6-2.6 2-3 1.24-3.2.42H703.87v-1h123.6l3-.4 2.76-1.14 2.4-1.83 1.82-2.4 1.14-2.75.4-3v-186l.42-3.22 1.24-3 2-2.6 2.6-2 3-1.24 3.2-.42H879M879.5 690.5h-.5v-1h.5M477.88 210.67l-14.26 4.63v-9.27z" fill="#333"/><path d="M479.5 210.67L463.12 216v-10.66m1 9.27l12.14-3.93-12.14-3.95" fill="#333"/><g><use xlink:href="#U" transform="matrix(1,0,0,1,522.7833333333333,889.2) translate(0.0049999999999954525 14.4)"/><use xlink:href="#V" transform="matrix(1,0,0,1,522.7833333333333,889.2) translate(98.205 14.4)"/></g><path d="M466.67 500c-8.84 0-16 7.16-16 16v48c0 8.84 7.16 16 16 16h128c8.83 0 16-7.16 16-16v-48c0-8.84-7.17-16-16-16z" stroke="#333" fill="#75b2ff"/><g><use xlink:href="#W" transform="matrix(1,0,0,1,458.66666666666663,508) translate(7.549999999999997 24.799999999999997)"/><use xlink:href="#X" transform="matrix(1,0,0,1,458.66666666666663,508) translate(44.55 24.799999999999997)"/><use xlink:href="#Y" transform="matrix(1,0,0,1,458.66666666666663,508) translate(64.55 24.799999999999997)"/><use xlink:href="#Z" transform="matrix(1,0,0,1,458.66666666666663,508) translate(103.5 24.799999999999997)"/><use xlink:href="#e" transform="matrix(1,0,0,1,458.66666666666663,508) translate(40.05 46.4)"/></g><path d="M463.12 258.74H422.2l-3.02.4-2.75 1.14-2.4 1.83-1.83 2.4-1.14 2.76-.4 3v257.7l.4 3.02 1.14 2.76 1.84 2.4 2.4 1.82 2.74 1.14 3.02.4h27.47v1h-27.54l-3.2-.42-3-1.24-2.6-2-2-2.6-1.24-3-.43-3.2V270.2l.42-3.2 1.23-3 2-2.6 2.6-2 3-1.24 3.2-.42h41" fill="#333"/><path d="M450.17 540.5h-.52v-1h.52M477.88 258.24l-14.26 4.64v-9.27z" fill="#333"/><path d="M479.5 258.24l-16.38 5.32v-10.64m1 9.27l12.14-3.96-12.14-3.95" fill="#333"/><defs><path fill="#333" d="M248-111c6-24 9-61-24-58-72 9-57 108-77 169h-31l26-142c3-37-50-30-64-10C52-115 50-51 37 0H6l36-190h30c-1 10-6 24-4 32 13-43 101-52 105 5 13-22 29-41 61-41 90 0 28 129 23 194h-31" id="aa"/><path fill="#333" d="M165-48c-4 18 1 34 23 27l-3 20c-29 8-62 0-52-35h-2C116-14 99 4 63 4 30 4 8-16 8-49c0-68 71-67 138-67 10-26 0-56-31-54-26 1-42 9-47 31l-32-5c8-67 160-71 144 15-5 28-9 54-15 81zM42-50c3 52 80 24 89-6 7-12 7-24 11-38-47 1-103-4-100 44" id="ab"/><path fill="#333" d="M44-68c0 29 11 47 38 47 30 0 42-19 51-41l28 9C148-21 126 4 82 4 31 4 10-29 12-85c3-77 74-140 146-93 12 8 15 23 18 40l-31 5c-1-22-13-36-36-36-52 0-65 49-65 101" id="ac"/><path fill="#333" d="M67-158c15-20 31-36 64-36 94 0 33 127 27 194h-32l25-140c3-38-53-32-70-12C52-117 51-51 37 0H6l51-261h31" id="ad"/><path fill="#333" d="M50-231l6-30h32l-6 30H50zM6 0l37-190h31L37 0H6" id="ae"/><path fill="#333" d="M67-158c22-48 132-52 116 29L158 0h-32l25-140c3-38-53-32-70-12C52-117 51-52 38 0H6l36-190h30" id="af"/><path fill="#333" d="M111-194c62-3 86 47 72 106H45c-7 38 6 69 45 68 27-1 43-14 53-32l24 11C152-15 129 4 87 4 38 3 12-23 12-71c0-70 32-119 99-123zm44 81c14-66-71-72-95-28-4 8-8 17-11 28h106" id="ag"/><g id="a"><use transform="matrix(0.04320987654320988,0,0,0.04320987654320988,0,0)" xlink:href="#aa"/><use transform="matrix(0.04320987654320988,0,0,0.04320987654320988,12.919753086419755,0)" xlink:href="#ab"/><use transform="matrix(0.04320987654320988,0,0,0.04320987654320988,21.56172839506173,0)" xlink:href="#ac"/><use transform="matrix(0.04320987654320988,0,0,0.04320987654320988,29.33950617283951,0)" xlink:href="#ad"/><use transform="matrix(0.04320987654320988,0,0,0.04320987654320988,37.98148148148149,0)" xlink:href="#ae"/><use transform="matrix(0.04320987654320988,0,0,0.04320987654320988,41.39506172839507,0)" xlink:href="#af"/><use transform="matrix(0.04320987654320988,0,0,0.04320987654320988,50.037037037037045,0)" xlink:href="#ag"/></g><path fill="#333" d="M67-162c32-53 139-36 121 50C175-51 163 2 97 4 68 4 52-11 42-31 38 6 28 39 22 75H-9l50-265h29c-1 10 0 20-3 28zm89 36c0-26-10-43-35-43-54 0-67 50-69 103-1 29 14 45 42 46 53 0 62-58 62-106" id="ah"/><path fill="#333" d="M30-147c31-64 166-65 159 27C183-49 158 1 86 4 9 8 1-88 30-147zM88-20c53 0 68-48 68-100 0-31-11-51-44-50-52 1-68 46-68 97 0 32 13 53 44 53" id="ai"/><path fill="#333" d="M188 0h-37l-8-164L71 0H34L18-190h31l8 164 75-164h34l8 164 74-164h31" id="aj"/><path fill="#333" d="M66-151c12-25 30-51 66-40l-6 26C45-176 58-65 38 0H6l36-190h30" id="ak"/><path fill="#333" d="M133-28C103 26-5 8 13-77c13-62 24-115 90-117 29-1 46 15 56 35l19-102h32L160 0h-30zM45-64c-2 27 10 43 35 43 54-1 69-50 69-103 0-29-15-46-42-46-53-1-58 58-62 106" id="al"/><g id="b"><use transform="matrix(0.04320987654320988,0,0,0.04320987654320988,0,0)" xlink:href="#ah"/><use transform="matrix(0.04320987654320988,0,0,0.04320987654320988,8.641975308641976,0)" xlink:href="#ai"/><use transform="matrix(0.04320987654320988,0,0,0.04320987654320988,17.283950617283953,0)" xlink:href="#aj"/><use transform="matrix(0.04320987654320988,0,0,0.04320987654320988,28.47530864197531,0)" xlink:href="#ag"/><use transform="matrix(0.04320987654320988,0,0,0.04320987654320988,37.117283950617285,0)" xlink:href="#ak"/><use transform="matrix(0.04320987654320988,0,0,0.04320987654320988,42.25925925925926,0)" xlink:href="#ag"/><use transform="matrix(0.04320987654320988,0,0,0.04320987654320988,50.90123456790123,0)" xlink:href="#al"/></g><g id="c"><use transform="matrix(0.04320987654320988,0,0,0.04320987654320988,0,0)" xlink:href="#ai"/><use transform="matrix(0.04320987654320988,0,0,0.04320987654320988,8.641975308641976,0)" xlink:href="#af"/></g><path fill="#333" d="M96-169c-40 0-48 33-48 73s9 75 48 75c24 0 41-14 43-38l32 2c-6 37-31 61-74 61-59 0-76-41-82-99-10-93 101-131 147-64 4 7 5 14 7 22l-32 3c-4-21-16-35-41-35" id="am"/><path fill="#333" d="M100-194c62-1 85 37 85 99 1 63-27 99-86 99S16-35 15-95c0-66 28-99 85-99zM99-20c44 1 53-31 53-75 0-43-8-75-51-75s-53 32-53 75 10 74 51 75" id="an"/><path fill="#333" d="M24-231v-30h32v30H24zM24 0v-190h32V0H24" id="ao"/><path fill="#333" d="M117-194c89-4 53 116 60 194h-32v-121c0-31-8-49-39-48C34-167 62-67 57 0H25l-1-190h30c1 10-1 24 2 32 11-22 29-35 61-36" id="ap"/><g id="d"><use transform="matrix(0.05,0,0,0.05,0,0)" xlink:href="#am"/><use transform="matrix(0.05,0,0,0.05,9,0)" xlink:href="#an"/><use transform="matrix(0.05,0,0,0.05,19,0)" xlink:href="#ao"/><use transform="matrix(0.05,0,0,0.05,22.95,0)" xlink:href="#ap"/></g><path fill="#333" d="M135-143c-3-34-86-38-87 0 15 53 115 12 119 90S17 21 10-45l28-5c4 36 97 45 98 0-10-56-113-15-118-90-4-57 82-63 122-42 12 7 21 19 24 35" id="aq"/><path fill="#333" d="M100-194c63 0 86 42 84 106H49c0 40 14 67 53 68 26 1 43-12 49-29l28 8c-11 28-37 45-77 45C44 4 14-33 15-96c1-61 26-98 85-98zm52 81c6-60-76-77-97-28-3 7-6 17-6 28h103" id="ar"/><path fill="#333" d="M114-163C36-179 61-72 57 0H25l-1-190h30c1 12-1 29 2 39 6-27 23-49 58-41v29" id="as"/><path fill="#333" d="M59-47c-2 24 18 29 38 22v24C64 9 27 4 27-40v-127H5v-23h24l9-43h21v43h35v23H59v120" id="at"/><path fill="#333" d="M85-194c31 0 48 13 60 33l-1-100h32l1 261h-30c-2-10 0-23-3-31C134-8 116 4 85 4 32 4 16-35 15-94c0-66 23-100 70-100zm9 24c-40 0-46 34-46 75 0 40 6 74 45 74 42 0 51-32 51-76 0-42-9-74-50-73" id="au"/><g id="e"><use transform="matrix(0.05,0,0,0.05,0,0)" xlink:href="#ao"/><use transform="matrix(0.05,0,0,0.05,3.95,0)" xlink:href="#ap"/><use transform="matrix(0.05,0,0,0.05,13.949999999999998,0)" xlink:href="#aq"/><use transform="matrix(0.05,0,0,0.05,22.95,0)" xlink:href="#ar"/><use transform="matrix(0.05,0,0,0.05,32.95,0)" xlink:href="#as"/><use transform="matrix(0.05,0,0,0.05,38.900000000000006,0)" xlink:href="#at"/><use transform="matrix(0.05,0,0,0.05,43.900000000000006,0)" xlink:href="#ar"/><use transform="matrix(0.05,0,0,0.05,53.900000000000006,0)" xlink:href="#au"/></g><path fill="#333" d="M115-194c55 1 70 41 70 98S169 2 115 4C84 4 66-9 55-30l1 105H24l-1-265h31l2 30c10-21 28-34 59-34zm-8 174c40 0 45-34 45-75s-6-73-45-74c-42 0-51 32-51 76 0 43 10 73 51 73" id="av"/><path fill="#333" d="M84 4C-5 8 30-112 23-190h32v120c0 31 7 50 39 49 72-2 45-101 50-169h31l1 190h-30c-1-10 1-25-2-33-11 22-28 36-60 37" id="aw"/><g id="f"><use transform="matrix(0.04320987654320988,0,0,0.04320987654320988,0,0)" xlink:href="#av"/><use transform="matrix(0.04320987654320988,0,0,0.04320987654320988,8.641975308641976,0)" xlink:href="#as"/><use transform="matrix(0.04320987654320988,0,0,0.04320987654320988,13.783950617283953,0)" xlink:href="#an"/><use transform="matrix(0.04320987654320988,0,0,0.04320987654320988,22.425925925925934,0)" xlink:href="#au"/><use transform="matrix(0.04320987654320988,0,0,0.04320987654320988,31.067901234567906,0)" xlink:href="#aw"/><use transform="matrix(0.04320987654320988,0,0,0.04320987654320988,39.70987654320988,0)" xlink:href="#am"/><use transform="matrix(0.04320987654320988,0,0,0.04320987654320988,47.48765432098766,0)" xlink:href="#at"/></g><path fill="#333" d="M24 0v-261h32V0H24" id="ax"/><g id="g"><use transform="matrix(0.04320987654320988,0,0,0.04320987654320988,0,0)" xlink:href="#aq"/><use transform="matrix(0.04320987654320988,0,0,0.04320987654320988,7.777777777777779,0)" xlink:href="#ar"/><use transform="matrix(0.04320987654320988,0,0,0.04320987654320988,16.419753086419753,0)" xlink:href="#ax"/><use transform="matrix(0.04320987654320988,0,0,0.04320987654320988,19.833333333333336,0)" xlink:href="#ar"/><use transform="matrix(0.04320987654320988,0,0,0.04320987654320988,28.47530864197531,0)" xlink:href="#am"/><use transform="matrix(0.04320987654320988,0,0,0.04320987654320988,36.25308641975309,0)" xlink:href="#at"/><use transform="matrix(0.04320987654320988,0,0,0.04320987654320988,40.574074074074076,0)" xlink:href="#ar"/><use transform="matrix(0.04320987654320988,0,0,0.04320987654320988,49.21604938271606,0)" xlink:href="#au"/></g><path fill="#333" d="M108 0H70L1-190h34L89-25l56-165h34" id="ay"/><path fill="#333" d="M101-234c-31-9-42 10-38 44h38v23H63V0H32v-167H5v-23h27c-7-52 17-82 69-68v24" id="az"/><path fill="#333" d="M179-190L93 31C79 59 56 82 12 73V49c39 6 53-20 64-50L1-190h34L92-34l54-156h33" id="aA"/><g id="h"><use transform="matrix(0.04938271604938272,0,0,0.04938271604938272,0,0)" xlink:href="#ay"/><use transform="matrix(0.04938271604938272,0,0,0.04938271604938272,8.88888888888889,0)" xlink:href="#ar"/><use transform="matrix(0.04938271604938272,0,0,0.04938271604938272,18.765432098765434,0)" xlink:href="#as"/><use transform="matrix(0.04938271604938272,0,0,0.04938271604938272,24.641975308641978,0)" xlink:href="#ao"/><use transform="matrix(0.04938271604938272,0,0,0.04938271604938272,28.543209876543212,0)" xlink:href="#az"/><use transform="matrix(0.04938271604938272,0,0,0.04938271604938272,33.48148148148148,0)" xlink:href="#aA"/></g><g id="i"><use transform="matrix(0.04938271604938272,0,0,0.04938271604938272,0,0)" xlink:href="#am"/><use transform="matrix(0.04938271604938272,0,0,0.04938271604938272,8.88888888888889,0)" xlink:href="#an"/><use transform="matrix(0.04938271604938272,0,0,0.04938271604938272,18.765432098765434,0)" xlink:href="#ao"/><use transform="matrix(0.04938271604938272,0,0,0.04938271604938272,22.666666666666668,0)" xlink:href="#ap"/></g><path fill="#333" d="M141-36C126-15 110 5 73 4 37 3 15-17 15-53c-1-64 63-63 125-63 3-35-9-54-41-54-24 1-41 7-42 31l-33-3c5-37 33-52 76-52 45 0 72 20 72 64v82c-1 20 7 32 28 27v20c-31 9-61-2-59-35zM48-53c0 20 12 33 32 33 41-3 63-29 60-74-43 2-92-5-92 41" id="aB"/><g id="j"><use transform="matrix(0.04938271604938272,0,0,0.04938271604938272,0,0)" xlink:href="#ay"/><use transform="matrix(0.04938271604938272,0,0,0.04938271604938272,8.88888888888889,0)" xlink:href="#aB"/><use transform="matrix(0.04938271604938272,0,0,0.04938271604938272,18.765432098765434,0)" xlink:href="#ax"/><use transform="matrix(0.04938271604938272,0,0,0.04938271604938272,22.666666666666668,0)" xlink:href="#aw"/><use transform="matrix(0.04938271604938272,0,0,0.04938271604938272,32.543209876543216,0)" xlink:href="#ar"/></g><g id="k"><use transform="matrix(0.04938271604938272,0,0,0.04938271604938272,0,0)" xlink:href="#ao"/><use transform="matrix(0.04938271604938272,0,0,0.04938271604938272,3.901234567901235,0)" xlink:href="#aq"/></g><path fill="#333" d="M177-190C167-65 218 103 67 71c-23-6-38-20-44-43l32-5c15 47 100 32 89-28v-30C133-14 115 1 83 1 29 1 15-40 15-95c0-56 16-97 71-98 29-1 48 16 59 35 1-10 0-23 2-32h30zM94-22c36 0 50-32 50-73 0-42-14-75-50-75-39 0-46 34-46 75s6 73 46 73" id="aC"/><g id="l"><use transform="matrix(0.04938271604938272,0,0,0.04938271604938272,0,0)" xlink:href="#aC"/><use transform="matrix(0.04938271604938272,0,0,0.04938271604938272,9.876543209876544,0)" xlink:href="#as"/><use transform="matrix(0.04938271604938272,0,0,0.04938271604938272,15.753086419753087,0)" xlink:href="#ar"/><use transform="matrix(0.04938271604938272,0,0,0.04938271604938272,25.629629629629633,0)" xlink:href="#aB"/><use transform="matrix(0.04938271604938272,0,0,0.04938271604938272,35.50617283950618,0)" xlink:href="#at"/><use transform="matrix(0.04938271604938272,0,0,0.04938271604938272,40.44444444444445,0)" xlink:href="#ar"/><use transform="matrix(0.04938271604938272,0,0,0.04938271604938272,50.320987654320994,0)" xlink:href="#as"/></g><g id="m"><use transform="matrix(0.04938271604938272,0,0,0.04938271604938272,0,0)" xlink:href="#an"/><use transform="matrix(0.04938271604938272,0,0,0.04938271604938272,9.876543209876544,0)" xlink:href="#as"/></g><path fill="#333" d="M145-31C134-9 116 4 85 4 32 4 16-35 15-94c0-59 17-99 70-100 32-1 48 14 60 33 0-11-1-24 2-32h30l-1 268h-32zM93-21c41 0 51-33 51-76s-8-73-50-73c-40 0-46 35-46 75s5 74 45 74" id="aD"/><g id="n"><use transform="matrix(0.04938271604938272,0,0,0.04938271604938272,0,0)" xlink:href="#ar"/><use transform="matrix(0.04938271604938272,0,0,0.04938271604938272,9.876543209876544,0)" xlink:href="#aD"/><use transform="matrix(0.04938271604938272,0,0,0.04938271604938272,19.75308641975309,0)" xlink:href="#aw"/><use transform="matrix(0.04938271604938272,0,0,0.04938271604938272,29.629629629629633,0)" xlink:href="#aB"/><use transform="matrix(0.04938271604938272,0,0,0.04938271604938272,39.50617283950618,0)" xlink:href="#ax"/></g><g id="o"><use transform="matrix(0.04938271604938272,0,0,0.04938271604938272,0,0)" xlink:href="#at"/><use transform="matrix(0.04938271604938272,0,0,0.04938271604938272,4.938271604938272,0)" xlink:href="#an"/></g><g id="p"><use transform="matrix(0.04938271604938272,0,0,0.04938271604938272,0,0)" xlink:href="#av"/><use transform="matrix(0.04938271604938272,0,0,0.04938271604938272,9.876543209876544,0)" xlink:href="#as"/><use transform="matrix(0.04938271604938272,0,0,0.04938271604938272,15.753086419753087,0)" xlink:href="#an"/><use transform="matrix(0.04938271604938272,0,0,0.04938271604938272,25.629629629629633,0)" xlink:href="#au"/><use transform="matrix(0.04938271604938272,0,0,0.04938271604938272,35.50617283950618,0)" xlink:href="#aw"/><use transform="matrix(0.04938271604938272,0,0,0.04938271604938272,45.38271604938272,0)" xlink:href="#am"/><use transform="matrix(0.04938271604938272,0,0,0.04938271604938272,54.27160493827161,0)" xlink:href="#at"/></g><g id="q"><use transform="matrix(0.04938271604938272,0,0,0.04938271604938272,0,0)" xlink:href="#ay"/><use transform="matrix(0.04938271604938272,0,0,0.04938271604938272,8.88888888888889,0)" xlink:href="#aB"/><use transform="matrix(0.04938271604938272,0,0,0.04938271604938272,18.765432098765434,0)" xlink:href="#ax"/><use transform="matrix(0.04938271604938272,0,0,0.04938271604938272,22.666666666666668,0)" xlink:href="#aw"/><use transform="matrix(0.04938271604938272,0,0,0.04938271604938272,32.543209876543216,0)" xlink:href="#ar"/></g><path fill="#a9afb8" d="M147 0H94L2-248h55l64 206c17-72 42-137 63-206h54" id="aE"/><path fill="#a9afb8" d="M185-48c-13 30-37 53-82 52C43 2 14-33 14-96s30-98 90-98c62 0 83 45 84 108H66c0 31 8 55 39 56 18 0 30-7 34-22zm-45-69c5-46-57-63-70-21-2 6-4 13-4 21h74" id="aF"/><path fill="#a9afb8" d="M135-194c87-1 58 113 63 194h-50c-7-57 23-157-34-157-59 0-34 97-39 157H25l-1-190h47c2 12-1 28 3 38 12-26 28-41 61-42" id="aG"/><path fill="#a9afb8" d="M88-194c31-1 46 15 58 34l-1-101h50l1 261h-48c-2-10 0-23-3-31C134-8 116 4 84 4 32 4 16-41 15-95c0-56 19-97 73-99zm17 164c33 0 40-30 41-66 1-37-9-64-41-64s-38 30-39 65c0 43 13 65 39 65" id="aH"/><path fill="#a9afb8" d="M25-224v-37h50v37H25zM25 0v-190h50V0H25" id="aI"/><path fill="#a9afb8" d="M195-6C206 82 75 100 31 46c-4-6-6-13-8-21l49-6c3 16 16 24 34 25 40 0 42-37 40-79-11 22-30 35-61 35-53 0-70-43-70-97 0-56 18-96 73-97 30 0 46 14 59 34l2-30h47zm-90-29c32 0 41-27 41-63 0-35-9-62-40-62-32 0-39 29-40 63 0 36 9 62 39 62" id="aJ"/><g id="r"><use transform="matrix(0.0728395061728395,0,0,0.0728395061728395,0,0)" xlink:href="#aE"/><use transform="matrix(0.0728395061728395,0,0,0.0728395061728395,16.02469135802469,0)" xlink:href="#aF"/><use transform="matrix(0.0728395061728395,0,0,0.0728395061728395,30.592592592592588,0)" xlink:href="#aG"/><use transform="matrix(0.0728395061728395,0,0,0.0728395061728395,46.54444444444444,0)" xlink:href="#aH"/><use transform="matrix(0.0728395061728395,0,0,0.0728395061728395,62.496296296296286,0)" xlink:href="#aI"/><use transform="matrix(0.0728395061728395,0,0,0.0728395061728395,69.78024691358024,0)" xlink:href="#aG"/><use transform="matrix(0.0728395061728395,0,0,0.0728395061728395,85.7320987654321,0)" xlink:href="#aJ"/></g><path fill="#a9afb8" d="M220-157c-53 9-28 100-34 157h-49v-107c1-27-5-49-29-50C55-147 81-57 75 0H25l-1-190h47c2 12-1 28 3 38 10-53 101-56 108 0 13-22 24-43 59-42 82 1 51 116 57 194h-49v-107c-1-25-5-48-29-50" id="aK"/><path fill="#a9afb8" d="M133-34C117-15 103 5 69 4 32 3 11-16 11-54c-1-60 55-63 116-61 1-26-3-47-28-47-18 1-26 9-28 27l-52-2c7-38 36-58 82-57s74 22 75 68l1 82c-1 14 12 18 25 15v27c-30 8-71 5-69-32zm-48 3c29 0 43-24 42-57-32 0-66-3-65 30 0 17 8 27 23 27" id="aL"/><path fill="#a9afb8" d="M190-63c-7 42-38 67-86 67-59 0-84-38-90-98-12-110 154-137 174-36l-49 2c-2-19-15-32-35-32-30 0-35 28-38 64-6 74 65 87 74 30" id="aM"/><path fill="#a9afb8" d="M114-157C55-157 80-60 75 0H25v-261h50l-1 109c12-26 28-41 61-42 86-1 58 113 63 194h-50c-7-57 23-157-34-157" id="aN"/><g id="s"><use transform="matrix(0.0728395061728395,0,0,0.0728395061728395,0,0)" xlink:href="#aK"/><use transform="matrix(0.0728395061728395,0,0,0.0728395061728395,23.308641975308642,0)" xlink:href="#aL"/><use transform="matrix(0.0728395061728395,0,0,0.0728395061728395,37.876543209876544,0)" xlink:href="#aM"/><use transform="matrix(0.0728395061728395,0,0,0.0728395061728395,52.44444444444444,0)" xlink:href="#aN"/><use transform="matrix(0.0728395061728395,0,0,0.0728395061728395,68.3962962962963,0)" xlink:href="#aI"/><use transform="matrix(0.0728395061728395,0,0,0.0728395061728395,75.68024691358025,0)" xlink:href="#aG"/><use transform="matrix(0.0728395061728395,0,0,0.0728395061728395,91.63209876543209,0)" xlink:href="#aF"/></g><path fill="#a9afb8" d="M238-95c0 69-44 99-111 99C63 4 22-25 22-93v-155h51v151c-1 38 19 59 55 60 90 1 49-130 58-211h52v153" id="aO"/><path fill="#a9afb8" d="M230 0l2-204L168 0h-37L68-204 70 0H24v-248h70l56 185 57-185h69V0h-46" id="aP"/><path fill="#a9afb8" d="M24 0v-248h52v208h133V0H24" id="aQ"/><g id="t"><use transform="matrix(0.0728395061728395,0,0,0.0728395061728395,0,0)" xlink:href="#aO"/><use transform="matrix(0.0728395061728395,0,0,0.0728395061728395,18.86543209876543,0)" xlink:href="#aP"/><use transform="matrix(0.0728395061728395,0,0,0.0728395061728395,40.644444444444446,0)" xlink:href="#aQ"/></g><path fill="#a9afb8" d="M137-138c1-29-70-34-71-4 15 46 118 7 119 86 1 83-164 76-172 9l43-7c4 19 20 25 44 25 33 8 57-30 24-41C81-84 22-81 20-136c-2-80 154-74 161-7" id="aR"/><path fill="#a9afb8" d="M115-3C79 11 28 4 28-45v-112H4v-33h27l15-45h31v45h36v33H77v99c-1 23 16 31 38 25v30" id="aS"/><g id="u"><use transform="matrix(0.0728395061728395,0,0,0.0728395061728395,0,0)" xlink:href="#aR"/><use transform="matrix(0.0728395061728395,0,0,0.0728395061728395,14.5679012345679,0)" xlink:href="#aS"/><use transform="matrix(0.0728395061728395,0,0,0.0728395061728395,23.235802469135802,0)" xlink:href="#aL"/><use transform="matrix(0.0728395061728395,0,0,0.0728395061728395,37.803703703703704,0)" xlink:href="#aS"/><use transform="matrix(0.0728395061728395,0,0,0.0728395061728395,46.471604938271604,0)" xlink:href="#aF"/></g><path fill="#a9afb8" d="M135-150c-39-12-60 13-60 57V0H25l-1-190h47c2 13-1 29 3 40 6-28 27-53 61-41v41" id="aT"/><g id="v"><use transform="matrix(0.0728395061728395,0,0,0.0728395061728395,0,0)" xlink:href="#aH"/><use transform="matrix(0.0728395061728395,0,0,0.0728395061728395,15.95185185185185,0)" xlink:href="#aI"/><use transform="matrix(0.0728395061728395,0,0,0.0728395061728395,23.235802469135802,0)" xlink:href="#aL"/><use transform="matrix(0.0728395061728395,0,0,0.0728395061728395,37.803703703703704,0)" xlink:href="#aJ"/><use transform="matrix(0.0728395061728395,0,0,0.0728395061728395,53.75555555555555,0)" xlink:href="#aT"/><use transform="matrix(0.0728395061728395,0,0,0.0728395061728395,63.953086419753085,0)" xlink:href="#aL"/><use transform="matrix(0.0728395061728395,0,0,0.0728395061728395,78.52098765432099,0)" xlink:href="#aK"/></g><path fill="#a9afb8" d="M153-248C145-148 188 4 80 4 36 3 13-21 6-62l32-5c4 25 16 42 43 43 27 0 39-20 39-49v-147H72v-28h81" id="aU"/><path fill="#a9afb8" d="M100-194c62-1 85 37 85 99 1 63-27 99-86 99S16-35 15-95c0-66 28-99 85-99zM99-20c44 1 53-31 53-75 0-43-8-75-51-75s-53 32-53 75 10 74 51 75" id="aV"/><path fill="#a9afb8" d="M100-194c63 0 86 42 84 106H49c0 40 14 67 53 68 26 1 43-12 49-29l28 8c-11 28-37 45-77 45C44 4 14-33 15-96c1-61 26-98 85-98zm52 81c6-60-76-77-97-28-3 7-6 17-6 28h103" id="aW"/><path fill="#a9afb8" d="M24 0v-261h32V0H24" id="aX"/><g id="w"><use transform="matrix(0.04248971193415638,0,0,0.04248971193415638,0,0)" xlink:href="#aU"/><use transform="matrix(0.04248971193415638,0,0,0.04248971193415638,7.648148148148148,0)" xlink:href="#aV"/><use transform="matrix(0.04248971193415638,0,0,0.04248971193415638,16.14609053497942,0)" xlink:href="#aW"/><use transform="matrix(0.04248971193415638,0,0,0.04248971193415638,24.644032921810698,0)" xlink:href="#aX"/></g><path fill="#a9afb8" d="M194 0L95-120 63-95V0H30v-248h33v124l119-124h40L117-140 236 0h-42" id="aY"/><path fill="#a9afb8" d="M114-163C36-179 61-72 57 0H25l-1-190h30c1 12-1 29 2 39 6-27 23-49 58-41v29" id="aZ"/><path fill="#a9afb8" d="M96-169c-40 0-48 33-48 73s9 75 48 75c24 0 41-14 43-38l32 2c-6 37-31 61-74 61-59 0-76-41-82-99-10-93 101-131 147-64 4 7 5 14 7 22l-32 3c-4-21-16-35-41-35" id="ba"/><path fill="#a9afb8" d="M135-143c-3-34-86-38-87 0 15 53 115 12 119 90S17 21 10-45l28-5c4 36 97 45 98 0-10-56-113-15-118-90-4-57 82-63 122-42 12 7 21 19 24 35" id="bb"/><path fill="#a9afb8" d="M210-169c-67 3-38 105-44 169h-31v-121c0-29-5-50-35-48C34-165 62-65 56 0H25l-1-190h30c1 10-1 24 2 32 10-44 99-50 107 0 11-21 27-35 58-36 85-2 47 119 55 194h-31v-121c0-29-5-49-35-48" id="bc"/><path fill="#a9afb8" d="M141-36C126-15 110 5 73 4 37 3 15-17 15-53c-1-64 63-63 125-63 3-35-9-54-41-54-24 1-41 7-42 31l-33-3c5-37 33-52 76-52 45 0 72 20 72 64v82c-1 20 7 32 28 27v20c-31 9-61-2-59-35zM48-53c0 20 12 33 32 33 41-3 63-29 60-74-43 2-92-5-92 41" id="bd"/><g id="x"><use transform="matrix(0.04248971193415638,0,0,0.04248971193415638,0,0)" xlink:href="#aY"/><use transform="matrix(0.04248971193415638,0,0,0.04248971193415638,10.19753086419753,0)" xlink:href="#aV"/><use transform="matrix(0.04248971193415638,0,0,0.04248971193415638,18.695473251028805,0)" xlink:href="#aZ"/><use transform="matrix(0.04248971193415638,0,0,0.04248971193415638,23.751748971193415,0)" xlink:href="#ba"/><use transform="matrix(0.04248971193415638,0,0,0.04248971193415638,31.399897119341563,0)" xlink:href="#bb"/><use transform="matrix(0.04248971193415638,0,0,0.04248971193415638,39.04804526748971,0)" xlink:href="#bc"/><use transform="matrix(0.04248971193415638,0,0,0.04248971193415638,51.752469135802464,0)" xlink:href="#bd"/><use transform="matrix(0.04248971193415638,0,0,0.04248971193415638,60.250411522633755,0)" xlink:href="#aZ"/><use transform="matrix(0.04248971193415638,0,0,0.04248971193415638,65.30668724279836,0)" xlink:href="#aV"/><use transform="matrix(0.04248971193415638,0,0,0.04248971193415638,73.80462962962963,0)" xlink:href="#bb"/></g><path fill="#a9afb8" d="M32 76v-337h29V76H32" id="be"/><use transform="matrix(0.04248971193415638,0,0,0.04248971193415638,0,0)" xlink:href="#be" id="y"/><path fill="#a9afb8" d="M30-248c118-7 216 8 213 122C240-48 200 0 122 0H30v-248zM63-27c89 8 146-16 146-99s-60-101-146-95v194" id="bf"/><path fill="#a9afb8" d="M115-194c53 0 69 39 70 98 0 66-23 100-70 100C84 3 66-7 56-30L54 0H23l1-261h32v101c10-23 28-34 59-34zm-8 174c40 0 45-34 45-75 0-40-5-75-45-74-42 0-51 32-51 76 0 43 10 73 51 73" id="bg"/><g id="z"><use transform="matrix(0.04248971193415638,0,0,0.04248971193415638,0,0)" xlink:href="#bf"/><use transform="matrix(0.04248971193415638,0,0,0.04248971193415638,11.004835390946502,0)" xlink:href="#aW"/><use transform="matrix(0.04248971193415638,0,0,0.04248971193415638,19.502777777777776,0)" xlink:href="#ba"/><use transform="matrix(0.04248971193415638,0,0,0.04248971193415638,27.150925925925925,0)" xlink:href="#aW"/><use transform="matrix(0.04248971193415638,0,0,0.04248971193415638,35.6488683127572,0)" xlink:href="#bc"/><use transform="matrix(0.04248971193415638,0,0,0.04248971193415638,48.35329218106995,0)" xlink:href="#bg"/><use transform="matrix(0.04248971193415638,0,0,0.04248971193415638,56.851234567901244,0)" xlink:href="#aW"/><use transform="matrix(0.04248971193415638,0,0,0.04248971193415638,65.34917695473251,0)" xlink:href="#aZ"/></g><path fill="#a9afb8" d="M27 0v-27h64v-190l-56 39v-29l58-41h29v221h61V0H27" id="bh"/><path fill="#a9afb8" d="M110-160c48 1 74 30 74 79 0 53-28 85-80 85-65 0-83-55-86-122-5-90 50-162 133-122 14 7 22 21 27 39l-31 6c-5-40-67-38-82-6-9 19-15 44-15 74 11-20 30-34 60-33zm-7 138c34 0 49-23 49-58s-16-56-50-56c-29 0-50 16-49 49 1 36 15 65 50 65" id="bi"/><path fill="#a9afb8" d="M68-38c1 34 0 65-14 84H32c9-13 17-26 17-46H33v-38h35" id="bj"/><g id="A"><use transform="matrix(0.04248971193415638,0,0,0.04248971193415638,0,0)" xlink:href="#bh"/><use transform="matrix(0.04248971193415638,0,0,0.04248971193415638,8.497942386831275,0)" xlink:href="#bi"/><use transform="matrix(0.04248971193415638,0,0,0.04248971193415638,16.99588477366255,0)" xlink:href="#bj"/></g><path fill="#a9afb8" d="M101-251c82-7 93 87 43 132L82-64C71-53 59-42 53-27h129V0H18c2-99 128-94 128-182 0-28-16-43-45-43s-46 15-49 41l-32-3c6-41 34-60 81-64" id="bk"/><path fill="#a9afb8" d="M101-251c68 0 85 55 85 127S166 4 100 4C33 4 14-52 14-124c0-73 17-127 87-127zm-1 229c47 0 54-49 54-102s-4-102-53-102c-51 0-55 48-55 102 0 53 5 102 54 102" id="bl"/><g id="B"><use transform="matrix(0.04248971193415638,0,0,0.04248971193415638,0,0)" xlink:href="#bk"/><use transform="matrix(0.04248971193415638,0,0,0.04248971193415638,8.497942386831275,0)" xlink:href="#bl"/><use transform="matrix(0.04248971193415638,0,0,0.04248971193415638,16.99588477366255,0)" xlink:href="#bk"/><use transform="matrix(0.04248971193415638,0,0,0.04248971193415638,25.493827160493822,0)" xlink:href="#bh"/></g><g id="C"><use transform="matrix(0.05,0,0,0.05,0,0)" xlink:href="#ar"/><use transform="matrix(0.05,0,0,0.05,10,0)" xlink:href="#aD"/><use transform="matrix(0.05,0,0,0.05,20,0)" xlink:href="#aw"/><use transform="matrix(0.05,0,0,0.05,30,0)" xlink:href="#aB"/><use transform="matrix(0.05,0,0,0.05,40,0)" xlink:href="#ax"/></g><path fill="#333" d="M30-248c118-7 216 8 213 122C240-48 200 0 122 0H30v-248zM63-27c89 8 146-16 146-99s-60-101-146-95v194" id="bm"/><g id="D"><use transform="matrix(0.05,0,0,0.05,0,0)" xlink:href="#bm"/><use transform="matrix(0.05,0,0,0.05,12.950000000000001,0)" xlink:href="#ao"/><use transform="matrix(0.05,0,0,0.05,16.900000000000002,0)" xlink:href="#aq"/><use transform="matrix(0.05,0,0,0.05,25.900000000000002,0)" xlink:href="#av"/><use transform="matrix(0.05,0,0,0.05,35.900000000000006,0)" xlink:href="#ar"/><use transform="matrix(0.05,0,0,0.05,45.900000000000006,0)" xlink:href="#ap"/><use transform="matrix(0.05,0,0,0.05,55.900000000000006,0)" xlink:href="#aq"/><use transform="matrix(0.05,0,0,0.05,64.9,0)" xlink:href="#ar"/></g><g id="E"><use transform="matrix(0.05,0,0,0.05,0,0)" xlink:href="#av"/><use transform="matrix(0.05,0,0,0.05,10,0)" xlink:href="#as"/><use transform="matrix(0.05,0,0,0.05,15.949999999999998,0)" xlink:href="#an"/><use transform="matrix(0.05,0,0,0.05,25.950000000000003,0)" xlink:href="#au"/><use transform="matrix(0.05,0,0,0.05,35.95,0)" xlink:href="#aw"/><use transform="matrix(0.05,0,0,0.05,45.95,0)" xlink:href="#am"/><use transform="matrix(0.05,0,0,0.05,54.95,0)" xlink:href="#at"/></g><path fill="#333" d="M210-169c-67 3-38 105-44 169h-31v-121c0-29-5-50-35-48C34-165 62-65 56 0H25l-1-190h30c1 10-1 24 2 32 10-44 99-50 107 0 11-21 27-35 58-36 85-2 47 119 55 194h-31v-121c0-29-5-49-35-48" id="bn"/><path fill="#333" d="M106-169C34-169 62-67 57 0H25v-261h32l-1 103c12-21 28-36 61-36 89 0 53 116 60 194h-32v-121c2-32-8-49-39-48" id="bo"/><g id="F"><use transform="matrix(0.05,0,0,0.05,0,0)" xlink:href="#bn"/><use transform="matrix(0.05,0,0,0.05,14.950000000000001,0)" xlink:href="#aB"/><use transform="matrix(0.05,0,0,0.05,24.950000000000003,0)" xlink:href="#am"/><use transform="matrix(0.05,0,0,0.05,33.95,0)" xlink:href="#bo"/><use transform="matrix(0.05,0,0,0.05,43.95,0)" xlink:href="#ao"/><use transform="matrix(0.05,0,0,0.05,47.900000000000006,0)" xlink:href="#ap"/><use transform="matrix(0.05,0,0,0.05,57.900000000000006,0)" xlink:href="#ar"/></g><path fill="#333" d="M206 0h-36l-40-164L89 0H53L-1-190h32L70-26l43-164h34l41 164 42-164h31" id="bp"/><g id="G"><use transform="matrix(0.05,0,0,0.05,0,0)" xlink:href="#av"/><use transform="matrix(0.05,0,0,0.05,10,0)" xlink:href="#an"/><use transform="matrix(0.05,0,0,0.05,20,0)" xlink:href="#bp"/><use transform="matrix(0.05,0,0,0.05,32.95,0)" xlink:href="#ar"/><use transform="matrix(0.05,0,0,0.05,42.95,0)" xlink:href="#as"/><use transform="matrix(0.05,0,0,0.05,48.900000000000006,0)" xlink:href="#ar"/><use transform="matrix(0.05,0,0,0.05,58.900000000000006,0)" xlink:href="#au"/></g><g id="H"><use transform="matrix(0.05,0,0,0.05,0,0)" xlink:href="#an"/><use transform="matrix(0.05,0,0,0.05,10,0)" xlink:href="#az"/><use transform="matrix(0.05,0,0,0.05,14.65,0)" xlink:href="#az"/></g><g id="I"><use transform="matrix(0.05,0,0,0.05,0,0)" xlink:href="#aC"/><use transform="matrix(0.05,0,0,0.05,10,0)" xlink:href="#as"/><use transform="matrix(0.05,0,0,0.05,15.949999999999998,0)" xlink:href="#ar"/><use transform="matrix(0.05,0,0,0.05,25.950000000000003,0)" xlink:href="#aB"/><use transform="matrix(0.05,0,0,0.05,35.95,0)" xlink:href="#at"/><use transform="matrix(0.05,0,0,0.05,40.95,0)" xlink:href="#ar"/><use transform="matrix(0.05,0,0,0.05,50.95,0)" xlink:href="#as"/></g><g id="J"><use transform="matrix(0.05,0,0,0.05,0,0)" xlink:href="#au"/><use transform="matrix(0.05,0,0,0.05,10,0)" xlink:href="#ao"/><use transform="matrix(0.05,0,0,0.05,13.949999999999998,0)" xlink:href="#aq"/><use transform="matrix(0.05,0,0,0.05,22.95,0)" xlink:href="#av"/><use transform="matrix(0.05,0,0,0.05,32.95,0)" xlink:href="#ar"/><use transform="matrix(0.05,0,0,0.05,42.95,0)" xlink:href="#ap"/><use transform="matrix(0.05,0,0,0.05,52.95,0)" xlink:href="#aq"/><use transform="matrix(0.05,0,0,0.05,61.95,0)" xlink:href="#ar"/></g><g id="K"><use transform="matrix(0.05,0,0,0.05,0,0)" xlink:href="#as"/><use transform="matrix(0.05,0,0,0.05,5.95,0)" xlink:href="#ar"/><use transform="matrix(0.05,0,0,0.05,15.949999999999998,0)" xlink:href="#bn"/><use transform="matrix(0.05,0,0,0.05,30.899999999999995,0)" xlink:href="#aB"/><use transform="matrix(0.05,0,0,0.05,40.9,0)" xlink:href="#ao"/><use transform="matrix(0.05,0,0,0.05,44.85,0)" xlink:href="#ap"/><use transform="matrix(0.05,0,0,0.05,54.85,0)" xlink:href="#ao"/><use transform="matrix(0.05,0,0,0.05,58.800000000000004,0)" xlink:href="#ap"/><use transform="matrix(0.05,0,0,0.05,68.80000000000001,0)" xlink:href="#aC"/></g><g id="L"><use transform="matrix(0.05,0,0,0.05,0,0)" xlink:href="#am"/><use transform="matrix(0.05,0,0,0.05,9,0)" xlink:href="#bo"/><use transform="matrix(0.05,0,0,0.05,19,0)" xlink:href="#aB"/><use transform="matrix(0.05,0,0,0.05,29,0)" xlink:href="#ap"/><use transform="matrix(0.05,0,0,0.05,39,0)" xlink:href="#aC"/><use transform="matrix(0.05,0,0,0.05,49,0)" xlink:href="#ar"/></g><g id="M"><use transform="matrix(0.05,0,0,0.05,0,0)" xlink:href="#bp"/><use transform="matrix(0.05,0,0,0.05,12.950000000000001,0)" xlink:href="#aB"/><use transform="matrix(0.05,0,0,0.05,22.950000000000003,0)" xlink:href="#ao"/><use transform="matrix(0.05,0,0,0.05,26.900000000000002,0)" xlink:href="#at"/><use transform="matrix(0.05,0,0,0.05,31.900000000000002,0)" xlink:href="#ao"/><use transform="matrix(0.05,0,0,0.05,35.85,0)" xlink:href="#ap"/><use transform="matrix(0.05,0,0,0.05,45.85,0)" xlink:href="#aC"/></g><g id="N"><use transform="matrix(0.05,0,0,0.05,0,0)" xlink:href="#az"/><use transform="matrix(0.05,0,0,0.05,5,0)" xlink:href="#an"/><use transform="matrix(0.05,0,0,0.05,15,0)" xlink:href="#as"/></g><g id="O"><use transform="matrix(0.05,0,0,0.05,0,0)" xlink:href="#av"/><use transform="matrix(0.05,0,0,0.05,10,0)" xlink:href="#as"/><use transform="matrix(0.05,0,0,0.05,15.949999999999998,0)" xlink:href="#an"/><use transform="matrix(0.05,0,0,0.05,25.950000000000003,0)" xlink:href="#au"/><use transform="matrix(0.05,0,0,0.05,35.95,0)" xlink:href="#aw"/><use transform="matrix(0.05,0,0,0.05,45.95,0)" xlink:href="#am"/><use transform="matrix(0.05,0,0,0.05,54.95,0)" xlink:href="#at"/></g><g id="P"><use transform="matrix(0.05,0,0,0.05,0,0)" xlink:href="#aq"/><use transform="matrix(0.05,0,0,0.05,9,0)" xlink:href="#ar"/><use transform="matrix(0.05,0,0,0.05,19,0)" xlink:href="#ax"/><use transform="matrix(0.05,0,0,0.05,22.95,0)" xlink:href="#ar"/><use transform="matrix(0.05,0,0,0.05,32.95,0)" xlink:href="#am"/><use transform="matrix(0.05,0,0,0.05,41.95,0)" xlink:href="#at"/><use transform="matrix(0.05,0,0,0.05,46.95,0)" xlink:href="#ao"/><use transform="matrix(0.05,0,0,0.05,50.900000000000006,0)" xlink:href="#an"/><use transform="matrix(0.05,0,0,0.05,60.900000000000006,0)" xlink:href="#ap"/></g><g id="Q"><use transform="matrix(0.05,0,0,0.05,0,0)" xlink:href="#an"/><use transform="matrix(0.05,0,0,0.05,10,0)" xlink:href="#as"/></g><g id="R"><use transform="matrix(0.05,0,0,0.05,0,0)" xlink:href="#am"/><use transform="matrix(0.05,0,0,0.05,9,0)" xlink:href="#an"/><use transform="matrix(0.05,0,0,0.05,19,0)" xlink:href="#ao"/><use transform="matrix(0.05,0,0,0.05,22.95,0)" xlink:href="#ap"/></g><g id="S"><use transform="matrix(0.05,0,0,0.05,0,0)" xlink:href="#ao"/><use transform="matrix(0.05,0,0,0.05,3.95,0)" xlink:href="#ap"/><use transform="matrix(0.05,0,0,0.05,13.949999999999998,0)" xlink:href="#aq"/><use transform="matrix(0.05,0,0,0.05,22.95,0)" xlink:href="#ar"/><use transform="matrix(0.05,0,0,0.05,32.95,0)" xlink:href="#as"/><use transform="matrix(0.05,0,0,0.05,38.900000000000006,0)" xlink:href="#at"/><use transform="matrix(0.05,0,0,0.05,43.900000000000006,0)" xlink:href="#ao"/><use transform="matrix(0.05,0,0,0.05,47.85000000000001,0)" xlink:href="#an"/><use transform="matrix(0.05,0,0,0.05,57.85,0)" xlink:href="#ap"/></g><g id="T"><use transform="matrix(0.05,0,0,0.05,0,0)" xlink:href="#ax"/><use transform="matrix(0.05,0,0,0.05,3.95,0)" xlink:href="#ar"/><use transform="matrix(0.05,0,0,0.05,13.949999999999998,0)" xlink:href="#aq"/><use transform="matrix(0.05,0,0,0.05,22.95,0)" xlink:href="#aq"/></g><path fill="#333" d="M127-220V0H93v-220H8v-28h204v28h-85" id="bq"/><g id="U"><use transform="matrix(0.05,0,0,0.05,0,0)" xlink:href="#bq"/><use transform="matrix(0.05,0,0,0.05,10.3,0)" xlink:href="#as"/><use transform="matrix(0.05,0,0,0.05,16.25,0)" xlink:href="#aB"/><use transform="matrix(0.05,0,0,0.05,26.25,0)" xlink:href="#ap"/><use transform="matrix(0.05,0,0,0.05,36.25,0)" xlink:href="#aq"/><use transform="matrix(0.05,0,0,0.05,45.25,0)" xlink:href="#aB"/><use transform="matrix(0.05,0,0,0.05,55.25,0)" xlink:href="#am"/><use transform="matrix(0.05,0,0,0.05,64.25,0)" xlink:href="#at"/><use transform="matrix(0.05,0,0,0.05,69.25,0)" xlink:href="#ao"/><use transform="matrix(0.05,0,0,0.05,73.2,0)" xlink:href="#an"/><use transform="matrix(0.05,0,0,0.05,83.2,0)" xlink:href="#ap"/></g><g id="V"><use transform="matrix(0.05,0,0,0.05,0,0)" xlink:href="#am"/><use transform="matrix(0.05,0,0,0.05,9,0)" xlink:href="#an"/><use transform="matrix(0.05,0,0,0.05,19,0)" xlink:href="#bn"/><use transform="matrix(0.05,0,0,0.05,33.95,0)" xlink:href="#av"/><use transform="matrix(0.05,0,0,0.05,43.95,0)" xlink:href="#ax"/><use transform="matrix(0.05,0,0,0.05,47.900000000000006,0)" xlink:href="#ar"/><use transform="matrix(0.05,0,0,0.05,57.900000000000006,0)" xlink:href="#at"/><use transform="matrix(0.05,0,0,0.05,62.900000000000006,0)" xlink:href="#ar"/><use transform="matrix(0.05,0,0,0.05,72.9,0)" xlink:href="#au"/></g><path fill="#333" d="M205 0l-28-72H64L36 0H1l101-248h38L239 0h-34zm-38-99l-47-123c-12 45-31 82-46 123h93" id="br"/><g id="W"><use transform="matrix(0.05,0,0,0.05,0,0)" xlink:href="#br"/><use transform="matrix(0.05,0,0,0.05,12,0)" xlink:href="#au"/><use transform="matrix(0.05,0,0,0.05,22,0)" xlink:href="#au"/></g><g id="X"><use transform="matrix(0.05,0,0,0.05,0,0)" xlink:href="#at"/><use transform="matrix(0.05,0,0,0.05,5,0)" xlink:href="#an"/></g><g id="Y"><use transform="matrix(0.05,0,0,0.05,0,0)" xlink:href="#at"/><use transform="matrix(0.05,0,0,0.05,5,0)" xlink:href="#an"/><use transform="matrix(0.05,0,0,0.05,15,0)" xlink:href="#at"/><use transform="matrix(0.05,0,0,0.05,20,0)" xlink:href="#aB"/><use transform="matrix(0.05,0,0,0.05,30,0)" xlink:href="#ax"/></g><g id="Z"><use transform="matrix(0.05,0,0,0.05,0,0)" xlink:href="#am"/><use transform="matrix(0.05,0,0,0.05,9,0)" xlink:href="#an"/><use transform="matrix(0.05,0,0,0.05,19,0)" xlink:href="#ao"/><use transform="matrix(0.05,0,0,0.05,22.95,0)" xlink:href="#ap"/></g></defs></g></svg>